<svg xmlns="http://www.w3.org/2000/svg" width="1200" height="340" viewBox="0 0 1200 340" role="img" aria-labelledby="t d">
  <title id="t">pet-adoption-system · 宠物领养管理系统</title>
  <desc id="d">Node.js + Express + MySQL + JWT 宠物领养后端 API,分层架构 + JWT 认证。左侧标题与技术栈,右侧展示分层请求流程与认证链路。</desc>
  <rect width="1200" height="340" rx="22" fill="#0f1a12"/>
  <rect x="0" y="0" width="6" height="340" rx="3" fill="#84cc16"/>

  <g transform="translate(56,54)" font-family="-apple-system,BlinkMacSystemFont,'Segoe UI','PingFang SC',sans-serif">
    <text x="0" y="0" font-size="15" letter-spacing="4" fill="#84cc16" font-weight="600">BACKEND · PET ADOPTION API</text>
    <text x="0" y="52" font-size="40" font-weight="700" fill="#eef3ed">宠物领养管理系统</text>
    <text x="0" y="96" font-size="17" fill="#8fa890">Node.js + Express + MySQL + JWT</text>
    <text x="0" y="122" font-size="17" fill="#8fa890">分层架构 · 身份认证 · 前端测试页</text>

    <g transform="translate(0,160)" font-size="13.5" font-family="ui-monospace,SFMono-Regular,Menlo,monospace">
      <g><rect width="88" height="30" rx="8" fill="none" stroke="#1f3324"/><text x="44" y="20" text-anchor="middle" fill="#bdd0bf">Express 5</text></g>
      <g transform="translate(100,0)"><rect width="76" height="30" rx="8" fill="none" stroke="#1f3324"/><text x="38" y="20" text-anchor="middle" fill="#bdd0bf">mysql2</text></g>
      <g transform="translate(188,0)"><rect width="92" height="30" rx="8" fill="none" stroke="#1f3324"/><text x="46" y="20" text-anchor="middle" fill="#bdd0bf">bcryptjs</text></g>
      <g transform="translate(292,0)"><rect width="56" height="30" rx="8" fill="none" stroke="#1f3324"/><text x="28" y="20" text-anchor="middle" fill="#bdd0bf">JWT</text></g>
      <g transform="translate(360,0)"><rect width="60" height="30" rx="8" fill="none" stroke="#1f3324"/><text x="30" y="20" text-anchor="middle" fill="#bdd0bf">cors</text></g>
      <g transform="translate(432,0)"><rect width="64" height="30" rx="8" fill="none" stroke="#1f3324"/><text x="32" y="20" text-anchor="middle" fill="#bdd0bf">dotenv</text></g>
    </g>
    <text x="0" y="236" font-size="13" font-family="ui-monospace,SFMono-Regular,Menlo,monospace" fill="#5e7261">连接池 · 统一日志 · 全局错误处理 · 404 兑底</text>
  </g>

  <g transform="translate(712,52)" font-family="-apple-system,BlinkMacSystemFont,'Segoe UI','PingFang SC',sans-serif">
    <text x="0" y="0" font-size="12" letter-spacing="3" fill="#5e7261">LAYERED ARCHITECTURE</text>

    <g transform="translate(0,18)">
      <rect width="420" height="36" rx="7" fill="#16241a" stroke="#1f3324"/>
      <text x="20" y="23" font-size="12.5" fill="#eef3ed" font-weight="600">HTTP 请求</text>
      <text x="400" y="23" font-size="10" fill="#7a8a7d" text-anchor="end" font-family="ui-monospace,monospace">Express app</text>
    </g>
    <path d="M210,54 L210,66" stroke="#3d5240" stroke-width="1.5" fill="none"/>
    <path d="M206,62 L210,68 L214,62" stroke="#3d5240" stroke-width="1.5" fill="none"/>

    <g transform="translate(0,70)">
      <rect width="420" height="36" rx="7" fill="#16241a" stroke="#1f3324"/>
      <text x="20" y="23" font-size="12.5" fill="#eef3ed" font-weight="600">中间件层 · logger / auth / errorHandler</text>
      <text x="400" y="23" font-size="10" fill="#7a8a7d" text-anchor="end" font-family="ui-monospace,monospace">middleware/</text>
    </g>
    <path d="M210,106 L210,118" stroke="#3d5240" stroke-width="1.5" fill="none"/>
    <path d="M206,114 L210,120 L214,114" stroke="#3d5240" stroke-width="1.5" fill="none"/>

    <g transform="translate(0,122)">
      <rect width="420" height="36" rx="7" fill="#16241a" stroke="#1f3324"/>
      <text x="20" y="23" font-size="12.5" fill="#eef3ed" font-weight="600">路由层 · userRouter / petRouter</text>
      <text x="400" y="23" font-size="10" fill="#7a8a7d" text-anchor="end" font-family="ui-monospace,monospace">router/</text>
    </g>
    <path d="M210,158 L210,170" stroke="#3d5240" stroke-width="1.5" fill="none"/>
    <path d="M206,166 L210,172 L214,166" stroke="#3d5240" stroke-width="1.5" fill="none"/>

    <g transform="translate(0,174)">
      <rect width="420" height="36" rx="7" fill="#16241a" stroke="#1f3324"/>
      <text x="20" y="23" font-size="12.5" fill="#eef3ed" font-weight="600">模型层 · userModel / petModel</text>
      <text x="400" y="23" font-size="10" fill="#7a8a7d" text-anchor="end" font-family="ui-monospace,monospace">models/</text>
    </g>
    <path d="M210,210 L210,222" stroke="#3d5240" stroke-width="1.5" fill="none"/>
    <path d="M206,218 L210,224 L214,218" stroke="#3d5240" stroke-width="1.5" fill="none"/>

    <g transform="translate(0,226)">
      <rect width="420" height="36" rx="7" fill="#1a2e16" stroke="#365a22"/>
      <text x="20" y="23" font-size="12.5" fill="#84cc16" font-weight="600">MySQL 连接池 · mysql2</text>
      <text x="400" y="23" font-size="10" fill="#5e7a32" text-anchor="end" font-family="ui-monospace,monospace">db/</text>
    </g>

    <g transform="translate(0,274)">
      <rect width="200" height="30" rx="7" fill="#2a1810" stroke="#6b3a1a"/>
      <text x="100" y="20" text-anchor="middle" font-size="11.5" fill="#b45309" font-weight="600">JWT · 24h · Bearer</text>
      <g transform="translate(216,0)">
        <rect width="204" height="30" rx="7" fill="#2a1810" stroke="#6b3a1a"/>
        <text x="102" y="20" text-anchor="middle" font-size="11.5" fill="#b45309" font-weight="600">bcrypt 密码加密</text>
      </g>
    </g>
  </g>

  <text x="56" y="312" font-size="12" font-family="ui-monospace,SFMono-Regular,Menlo,monospace" fill="#5e7261">author: liem · :3000 · Apple HIG + Liquid Glass 测试页</text>
</svg>
