<svg xmlns="http://www.w3.org/2000/svg" viewBox="0 0 1200 240" width="100%" role="img" aria-labelledby="stackTitle stackDesc">
  <title id="stackTitle">技术栈 - Express / mysql2 / JWT / bcrypt</title>
  <desc id="stackDesc">宠物领养系统真实依赖:Express 5.2 Web 框架、mysql2 连接池、jsonwebtoken 鉴权、bcryptjs 密码加密、cors、body-parser、dotenv。</desc>

  <rect x="0" y="0" width="1200" height="240" rx="20" fill="#1A1410"/>
  <rect x="0.5" y="0.5" width="1199" height="239" rx="20" fill="none" stroke="#2A211B" stroke-width="1"/>

  <g transform="translate(48 36)">
    <line x1="0" y1="6" x2="22" y2="6" stroke="#C97B5C" stroke-width="2" stroke-linecap="round"/>
    <text x="32" y="11" font-family="ui-monospace, SFMono-Regular, Menlo, Consolas, monospace" font-size="12" font-weight="500" letter-spacing="1.6" fill="#C97B5C">STACK · DEPENDENCIES</text>
    <text x="0" y="48" font-family="-apple-system, BlinkMacSystemFont, 'Segoe UI', Roboto, sans-serif" font-size="32" font-weight="700" letter-spacing="-0.3" fill="#E8E4D9">技术栈</text>
    <text x="0" y="74" font-family="-apple-system, BlinkMacSystemFont, 'Segoe UI', Roboto, sans-serif" font-size="15" font-weight="400" fill="#8B7E72">七项核心依赖,覆盖 Web 框架、数据库、鉴权、密码、跨域、请求体与环境配置</text>
  </g>

  <g transform="translate(48 150)">
    <g>
      <rect x="0" y="0" width="144" height="70" rx="10" fill="#221C18" stroke="#3A2F26" stroke-width="1"/>
      <rect x="0" y="0" width="4" height="70" rx="2" fill="#C97B5C"/>
      <text x="16" y="32" font-family="ui-monospace, SFMono-Regular, Menlo, Consolas, monospace" font-size="14" font-weight="600" fill="#E8E4D9">Express 5.2</text>
      <text x="16" y="54" font-family="ui-monospace, SFMono-Regular, Menlo, Consolas, monospace" font-size="11" font-weight="400" fill="#8B7E72">Web 框架</text>
    </g>

    <g transform="translate(160 0)">
      <rect x="0" y="0" width="144" height="70" rx="10" fill="#221C18" stroke="#3A2F26" stroke-width="1"/>
      <rect x="0" y="0" width="4" height="70" rx="2" fill="#C97B5C"/>
      <text x="16" y="32" font-family="ui-monospace, SFMono-Regular, Menlo, Consolas, monospace" font-size="14" font-weight="600" fill="#E8E4D9">mysql2</text>
      <text x="16" y="54" font-family="ui-monospace, SFMono-Regular, Menlo, Consolas, monospace" font-size="11" font-weight="400" fill="#8B7E72">连接池</text>
    </g>

    <g transform="translate(320 0)">
      <rect x="0" y="0" width="144" height="70" rx="10" fill="#16202E" stroke="#283248" stroke-width="1"/>
      <rect x="0" y="0" width="4" height="70" rx="2" fill="#4A9EFF"/>
      <text x="16" y="32" font-family="ui-monospace, SFMono-Regular, Menlo, Consolas, monospace" font-size="14" font-weight="600" fill="#E8E4D9">jsonwebtoken</text>
      <text x="16" y="54" font-family="ui-monospace, SFMono-Regular, Menlo, Consolas, monospace" font-size="11" font-weight="400" fill="#8B7E72">JWT 鉴权</text>
    </g>

    <g transform="translate(480 0)">
      <rect x="0" y="0" width="144" height="70" rx="10" fill="#16202E" stroke="#283248" stroke-width="1"/>
      <rect x="0" y="0" width="4" height="70" rx="2" fill="#4A9EFF"/>
      <text x="16" y="32" font-family="ui-monospace, SFMono-Regular, Menlo, Consolas, monospace" font-size="14" font-weight="600" fill="#E8E4D9">bcryptjs</text>
      <text x="16" y="54" font-family="ui-monospace, SFMono-Regular, Menlo, Consolas, monospace" font-size="11" font-weight="400" fill="#8B7E72">密码 hash</text>
    </g>

    <g transform="translate(640 0)">
      <rect x="0" y="0" width="144" height="70" rx="10" fill="#14201A" stroke="#2A3A30" stroke-width="1"/>
      <rect x="0" y="0" width="4" height="70" rx="2" fill="#9EB8A8"/>
      <text x="16" y="32" font-family="ui-monospace, SFMono-Regular, Menlo, Consolas, monospace" font-size="14" font-weight="600" fill="#E8E4D9">cors</text>
      <text x="16" y="54" font-family="ui-monospace, SFMono-Regular, Menlo, Consolas, monospace" font-size="11" font-weight="400" fill="#8B7E72">跨域</text>
    </g>

    <g transform="translate(800 0)">
      <rect x="0" y="0" width="144" height="70" rx="10" fill="#14201A" stroke="#2A3A30" stroke-width="1"/>
      <rect x="0" y="0" width="4" height="70" rx="2" fill="#9EB8A8"/>
      <text x="16" y="32" font-family="ui-monospace, SFMono-Regular, Menlo, Consolas, monospace" font-size="14" font-weight="600" fill="#E8E4D9">body-parser</text>
      <text x="16" y="54" font-family="ui-monospace, SFMono-Regular, Menlo, Consolas, monospace" font-size="11" font-weight="400" fill="#8B7E72">请求体</text>
    </g>

    <g transform="translate(960 0)">
      <rect x="0" y="0" width="144" height="70" rx="10" fill="#14201A" stroke="#2A3A30" stroke-width="1"/>
      <rect x="0" y="0" width="4" height="70" rx="2" fill="#9EB8A8"/>
      <text x="16" y="32" font-family="ui-monospace, SFMono-Regular, Menlo, Consolas, monospace" font-size="14" font-weight="600" fill="#E8E4D9">dotenv</text>
      <text x="16" y="54" font-family="ui-monospace, SFMono-Regular, Menlo, Consolas, monospace" font-size="11" font-weight="400" fill="#8B7E72">环境变量</text>
    </g>
  </g>
</svg>
